<?xml version="1.0" standalone="no"?>
<!DOCTYPE svg PUBLIC "-//W3C//DTD SVG 1.1//EN" "http://www.w3.org/Graphics/SVG/1.1/DTD/svg11.dtd">
<svg width="112.8mm" height="677.224489795919mm"
 viewBox="0 0 112.8 677.224489795919"
 xmlns="http://www.w3.org/2000/svg" version="1.1"
 xmlns:xlink="http://www.w3.org/1999/xlink">
<desc>Output from Flights of Ideas SVG Sketchup Plugin</desc>

  <path id="face0-cut"
 style="fill:none;stroke:rgb(0,0,255);stroke-width:1;stroke-miterlimit:4;stroke-dasharray:none;stroke-linejoin:round;stroke-linecap:round"
        d="M 47.4916407684016,36.0432233554236 L 46.9849282331384,35.181108278066 L 45.9072843864414,35.8144989471451 L 44.6405030482833,33.6592112537512 L 45.7181468949802,33.0258205846722 L 43.6912967539276,29.5773602752424 L 32.0527432096012,36.4179795012953 L 29.5191805332852,32.1074041145076 L 20.8980297597101,37.1745294671393 L 23.4315924360259,41.485104853927 L 13.0,47.6163265306116 L 13.0,51.6122448979587 L 10.0,51.6122448979588 L 10.0,56.6122448979587 L 13.0,56.6122448979587 L 13.0,60.1122448979586 L 17.5000000000001,60.1122448979586 L 17.5000000000001,58.8622448979589 L 20.0000000000001,58.8622448979589 L 20.0000000000001,60.1122448979586 L 20.5000000000001,60.1122448979586 L 20.5000000000001,63.1122448979587 L 20.0000000000001,63.1122448979587 L 20.0000000000001,64.3622448979587 L 17.5000000000001,64.3622448979587 L 17.5000000000001,63.1122448979587 L 13.0,63.1122448979587 L 13.0,66.6122448979586 L 10.0,66.6122448979586 L 10.0,71.6122448979589 L 13.0,71.6122448979589 L 13.0,76.6122448979588 L 20.0000000000001,76.6122448979588 L 20.0000000000001,83.6122448979587 L 30.0000000000001,83.6122448979587 L 30.0000000000001,76.6122448979588 L 43.5000000000001,76.6122448979588 L 43.5000000000001,72.6122448979587 L 42.2500000000001,72.6122448979587 L 42.2500000000001,70.1122448979589 L 43.5000000000001,70.1122448979589 L 43.5000000000001,69.6122448979586 L 46.5,69.6122448979586 L 46.5,70.1122448979589 L 47.7500000000001,70.1122448979589 L 47.7500000000001,72.6122448979587 L 46.5,72.6122448979587 L 46.5,76.6122448979588 L 60.0,76.6122448979588 L 60.0,83.6122448979587 L 70.0000000000001,83.6122448979587 L 70.0000000000001,76.6122448979588 L 77.0000000000001,76.6122448979588 L 77.0000000000001,66.6122448979586 L 80.0000000000001,66.6122448979586 L 80.0000000000001,56.6122448979587 L 77.0000000000001,56.6122448979587 L 77.0000000000001,48.1122448979588 L 72.5,48.1122448979588 L 72.5,49.3622448979589 L 70.0000000000001,49.3622448979589 L 70.0000000000001,48.1122448979588 L 69.5,48.1122448979588 L 69.5,45.1122448979584 L 70.0000000000001,45.1122448979584 L 70.0000000000001,43.8622448979587 L 72.5,43.8622448979587 L 72.5,45.1122448979584 L 77.0000000000001,45.1122448979584 L 77.0000000000001,36.6122448979585 L 80.0000000000001,36.6122448979585 L 80.0000000000001,26.6122448979587 L 77.0000000000001,26.6122448979587 L 77.0000000000001,16.6122448979588 L 77.0000000000001,10.0 L 66.552876933938,16.1403498837263 L 64.019314257622,11.8297744969386 L 55.3981634840469,16.8968998495706 L 57.9317261603628,21.207475236358 L 46.2776419860001,28.0572226694526 L 48.3044921270529,31.5056829788828 L 49.3821359737498,30.8722923098038 L 50.6489173119077,33.0275800031976 L 49.5712734652108,33.6609706722767 L 50.077986000474,34.5230857496342 L 47.4916407684016,36.0432233554236 M 53.8500000000001,73.6122448979588 L 53.8500000000001,61.6122448979588 L 69.8500000000001,61.6122448979588 L 69.8500000000001,73.6122448979588 L 53.8500000000001,73.6122448979588 M 23.9999999999999,61.6122448979588 L 39.9999999999999,61.6122448979588 L 39.9999999999999,73.6122448979588 L 23.9999999999999,73.6122448979588 L 23.9999999999999,61.6122448979588 "
  />
  <path id="face1-cut"
 style="fill:none;stroke:rgb(0,0,255);stroke-width:1;stroke-miterlimit:4;stroke-dasharray:none;stroke-linejoin:round;stroke-linecap:round"
        d="M 10.0,93.6122448979587 L 10.0,208.612244897959 L 102.8,208.612244897959 L 102.8,93.6122448979587 L 10.0,93.6122448979587 M 75.2355536126369,121.06527351846 L 75.9000000000001,126.112244897959 L 75.2355536126369,131.159216277458 L 73.2874953737967,135.862244897958 L 70.1885822331378,139.900827131097 L 66.15,142.999740271755 L 61.4469713794991,144.947798510596 L 56.4,145.612244897959 L 51.3530286205009,144.947798510596 L 46.65,142.999740271755 L 42.6114177668624,139.900827131097 L 39.5125046262035,135.862244897958 L 37.5644463873633,131.159216277458 L 36.8999999999999,126.112244897959 L 37.5644463873633,121.06527351846 L 39.5125046262035,116.362244897959 L 42.6114177668624,112.323662664821 L 46.65,109.224749524162 L 51.3530286205009,107.276691285322 L 56.4,106.612244897959 L 61.4469713794991,107.276691285322 L 66.15,109.224749524162 L 70.1885822331376,112.323662664821 L 73.2874953737965,116.362244897959 L 75.2355536126369,121.06527351846 M 38.4342850532442,142.793372360953 L 38.566758364488,142.424882736258 L 38.7900898899061,142.103235706964 L 39.0890599551138,141.85035098657 L 39.4432942442388,141.683462250859 L 39.8286522758769,141.613942691372 L 40.2188725370062,141.646529951203 L 40.5873621617005,141.779003262447 L 40.9090091909945,142.002334787865 L 41.1618939113889,142.301304853072 L 41.3287826471002,142.655539142198 L 41.3983022065867,143.040897173836 L 41.3657149467557,143.431117434965 L 41.2332416355119,143.799607059659 L 41.009910110094,144.121254088953 L 40.7109400448861,144.374138809348 L 40.3567057557613,144.541027545059 L 39.9713477241232,144.610547104545 L 39.5811274629937,144.577959844714 L 39.2126378382996,144.44548653347 L 38.8909908090056,144.222155008053 L 38.6381060886113,143.923184942845 L 38.4712173528999,143.56895065372 L 38.4016977934132,143.183592622082 L 38.4342850532442,142.793372360953 M 39.2778454696436,110.47713454198 L 38.94578543685,110.269601613701 L 38.6787535496209,109.983196737865 L 38.4949475897801,109.637437933457 L 38.4068936297368,109.255888091601 L 38.4205924013522,108.864549203481 L 38.5351103559785,108.490090367602 L 38.7426432842583,108.158030334809 L 39.0290481600935,107.89099844758 L 39.3748069645022,107.707192487739 L 39.7563568063576,107.619138527696 L 40.1476956944782,107.632837299311 L 40.5221545303565,107.747355253938 L 40.8542145631501,107.954888182217 L 41.121246450379,108.241293058052 L 41.3050524102198,108.587051862461 L 41.3931063702631,108.968601704316 L 41.3794075986479,109.359940592437 L 41.2648896440214,109.734399428315 L 41.0573567157417,110.066459461109 L 40.7709518399067,110.333491348338 L 40.4251930354977,110.517297308179 L 40.0436431936424,110.605351268222 L 39.6523043055218,110.591652496607 L 39.2778454696436,110.47713454198 M 38.5627138959068,193.891704886332 L 38.432423629543,193.522437736168 L 38.402146267541,193.132031456698 L 38.473945162086,192.747091590691 L 38.6429273371676,192.393851153873 L 38.8975769368105,192.096382898253 L 39.2205400116275,191.874958793865 L 39.589807161791,191.744668527501 L 39.9802134412607,191.7143911655 L 40.3651533072677,191.786190060044 L 40.7183937440862,191.955172235126 L 41.0158619997052,192.209821834769 L 41.2372861040931,192.532784909586 L 41.3675763704571,192.90205205975 L 41.3978537324589,193.292458339219 L 41.3260548379141,193.677398205226 L 41.1570726628323,194.030638642045 L 40.9024230631894,194.328106897664 L 40.5794599883727,194.549531002052 L 40.2101928382089,194.679821268415 L 39.8197865587392,194.710098630418 L 39.4348466927324,194.638299735872 L 39.0816062559137,194.469317560791 L 38.7841380002949,194.214667961148 L 38.5627138959068,193.891704886332 M 39.9,160.712244897959 L 39.5117714323463,160.661133637392 L 39.15,160.511283003635 L 38.8393398282201,160.272905069739 L 38.6009618943234,159.962244897959 L 38.4511112605664,159.600473465613 L 38.3999999999999,159.212244897959 L 38.4511112605664,158.824016330305 L 38.6009618943234,158.462244897959 L 38.8393398282201,158.151584726179 L 39.15,157.913206792282 L 39.5117714323463,157.763356158525 L 39.9,157.712244897959 L 40.2882285676538,157.763356158525 L 40.65,157.913206792282 L 40.9606601717798,158.151584726179 L 41.1990381056767,158.462244897959 L 41.3488887394337,158.824016330305 L 41.4,159.212244897959 L 41.3488887394337,159.600473465613 L 41.1990381056767,159.962244897959 L 40.9606601717798,160.272905069739 L 40.65,160.511283003635 L 40.2882285676538,160.661133637392 L 39.9,160.712244897959 M 59.6233192270695,195.443995030497 L 54.5359440828465,195.622945440127 L 49.5756012688797,194.479088685506 L 45.0803299505864,192.090376714152 L 41.3564754395214,188.619596299377 L 38.6578122666534,184.303275390713 L 37.1682498674613,179.435564125028 L 36.9892994578318,174.348188980806 L 38.1331562124519,169.387846166838 L 40.5218681838067,164.892574848545 L 43.9926485985816,161.16872033748 L 48.3089695072455,158.470057164613 L 53.1766807729305,156.98049476542 L 58.2640559171535,156.80154435579 L 63.2243987311203,157.945401110411 L 67.7196700494137,160.334113081766 L 71.4435245604786,163.80489349654 L 74.1421877333466,168.121214405204 L 75.6317501325387,172.988925670889 L 75.8107005421682,178.076300815113 L 74.6668437875481,183.036643629079 L 72.2781318161933,187.531914947373 L 68.8073514014184,191.255769458437 L 64.4910304927545,193.954432631306 L 59.6233192270695,195.443995030497 M 71.4,98.6122448979586 L 71.4,95.6122448979588 L 81.4,95.6122448979584 L 81.4,98.6122448979587 L 71.4,98.6122448979586 M 31.4,95.6122448979585 L 41.4,95.6122448979586 L 41.4,98.6122448979586 L 31.4,98.6122448979586 L 31.4,95.6122448979585 M 71.4,206.612244897959 L 71.4,203.612244897959 L 81.4,203.612244897959 L 81.4,206.612244897959 L 71.4,206.612244897959 M 31.4,206.612244897959 L 31.4,203.612244897959 L 41.4,203.612244897959 L 41.4,206.612244897959 L 31.4,206.612244897959 M 56.0117714323462,98.4611336373923 L 55.65,98.3112830036354 L 55.3393398282202,98.0729050697385 L 55.1009618943233,97.7622448979588 L 54.9511112605664,97.4004734656126 L 54.9,97.0122448979587 L 54.9511112605664,96.6240163303049 L 55.1009618943233,96.2622448979588 L 55.3393398282202,95.9515847261787 L 55.65,95.7132067922822 L 56.0117714323462,95.5633561585249 L 56.4,95.5122448979587 L 56.7882285676538,95.5633561585249 L 57.15,95.7132067922823 L 57.4606601717798,95.9515847261789 L 57.6990381056767,96.2622448979588 L 57.8488887394336,96.6240163303047 L 57.9,97.0122448979586 L 57.8488887394336,97.4004734656126 L 57.6990381056767,97.7622448979589 L 57.4606601717798,98.0729050697384 L 57.15,98.3112830036354 L 56.7882285676538,98.4611336373923 L 56.4,98.5122448979586 L 56.0117714323462,98.4611336373923 M 57.15,203.813206792282 L 57.4606601717798,204.051584726179 L 57.6990381056767,204.362244897959 L 57.8488887394336,204.724016330305 L 57.9,205.112244897959 L 57.8488887394336,205.500473465612 L 57.6990381056767,205.862244897958 L 57.4606601717798,206.172905069739 L 57.15,206.411283003635 L 56.7882285676538,206.561133637392 L 56.4,206.612244897959 L 56.0117714323462,206.561133637392 L 55.65,206.411283003635 L 55.3393398282202,206.172905069739 L 55.1009618943233,205.862244897958 L 54.9511112605664,205.500473465612 L 54.9,205.112244897959 L 54.9511112605664,204.724016330305 L 55.1009618943233,204.362244897959 L 55.3393398282202,204.051584726179 L 55.65,203.813206792282 L 56.0117714323462,203.663356158526 L 56.4,203.612244897959 L 56.7882285676538,203.663356158526 L 57.15,203.813206792282 "
  />
  <path id="face2-cut"
 style="fill:none;stroke:rgb(0,0,255);stroke-width:1;stroke-miterlimit:4;stroke-dasharray:none;stroke-linejoin:round;stroke-linecap:round"
        d="M 10.0,251.112244897959 L 17.0,251.112244897959 L 17.0,301.112244897959 L 10.0,301.112244897959 L 10.0,311.112244897959 L 17.0,311.112244897959 L 17.0,333.61224489796 L 44.0000000000001,333.61224489796 L 44.0000000000001,218.612244897959 L 17.0,218.612244897959 L 17.0,241.112244897959 L 10.0,241.112244897959 L 10.0,251.112244897959 M 26.9999999999999,220.612244897959 L 26.9999999999999,223.612244897959 L 21.9999999999999,223.612244897959 L 21.9999999999999,220.612244897959 L 26.9999999999999,220.612244897959 M 21.9999999999999,331.612244897959 L 21.9999999999999,328.612244897959 L 27.0000000000001,328.612244897959 L 27.0000000000001,331.612244897959 L 21.9999999999999,331.612244897959 M 41.9999999999999,223.612244897959 L 37.0,223.612244897959 L 37.0,220.612244897959 L 41.9999999999999,220.612244897959 L 41.9999999999999,223.612244897959 M 41.9999999999999,331.612244897959 L 37.0,331.612244897959 L 37.0,328.612244897959 L 41.9999999999999,328.612244897959 L 41.9999999999999,331.612244897959 M 30.5511112605664,222.500473465613 L 30.5,222.112244897959 L 30.5511112605664,221.724016330306 L 30.7009618943233,221.362244897959 L 30.9393398282202,221.051584726179 L 31.2499999999998,220.813206792283 L 31.6117714323461,220.663356158525 L 32.0000000000001,220.612244897959 L 32.3882285676538,220.663356158525 L 32.7499999999999,220.813206792283 L 33.0606601717798,221.051584726179 L 33.2990381056766,221.362244897959 L 33.4488887394335,221.724016330306 L 33.5000000000001,222.112244897959 L 33.4488887394335,222.500473465613 L 33.2990381056766,222.862244897959 L 33.0606601717798,223.172905069739 L 32.7499999999999,223.411283003636 L 32.3882285676538,223.561133637393 L 32.0000000000001,223.612244897959 L 31.6117714323461,223.561133637393 L 31.2499999999998,223.411283003636 L 30.9393398282202,223.172905069739 L 30.7009618943233,222.862244897959 L 30.5511112605664,222.500473465613 M 30.5140458402832,330.317038050238 L 30.5116741323315,329.925466656109 L 30.6107293726865,329.546623890495 L 30.8044611104148,329.206327261808 L 31.079666847747,328.927767422925 L 31.4175917684826,328.729927766523 L 31.7952068477211,328.626290738242 L 32.1867782418507,328.623919030291 L 32.5656210074638,328.722974270646 L 32.9059176361511,328.916706008375 L 33.1844774750346,329.191911745706 L 33.3823171314357,329.529836666442 L 33.4859541597167,329.90745174568 L 33.4883258676686,330.29902313981 L 33.3892706273134,330.677865905423 L 33.1955388895851,331.018162534111 L 32.9203331522531,331.296722372994 L 32.5824082315174,331.494562029395 L 32.204793152279,331.598199057677 L 31.8132217581492,331.600570765628 L 31.434378992536,331.501515525273 L 31.0940823638489,331.307783787544 L 30.8155225249655,331.032578050213 L 30.6176828685643,330.694653129476 L 30.5140458402832,330.317038050238 "
  />
  <path id="face3-cut"
 style="fill:none;stroke:rgb(0,0,255);stroke-width:1;stroke-miterlimit:4;stroke-dasharray:none;stroke-linejoin:round;stroke-linecap:round"
        d="M 10.0,458.61224489796 L 90.0000000000001,458.61224489796 L 90.0000000000001,343.61224489796 L 10.0,343.61224489796 L 10.0,458.61224489796 M 35.5617714323462,382.863356158526 L 35.9499999999999,382.81224489796 L 36.3382285676539,382.863356158526 L 36.7,383.013206792283 L 37.01066017178,383.25158472618 L 37.2490381056767,383.56224489796 L 37.3988887394336,383.924016330306 L 37.45,384.31224489796 L 37.3988887394336,384.700473465614 L 37.2490381056767,385.06224489796 L 37.01066017178,385.372905069739 L 36.6999999999999,385.611283003636 L 36.3382285676538,385.761133637393 L 35.95,385.81224489796 L 35.5617714323462,385.761133637393 L 35.1999999999999,385.611283003636 L 34.8893398282201,385.372905069739 L 34.6509618943234,385.06224489796 L 34.5011112605664,384.700473465614 L 34.4500000000001,384.31224489796 L 34.5011112605664,383.924016330306 L 34.6509618943234,383.56224489796 L 34.8893398282202,383.25158472618 L 35.1999999999999,383.013206792283 L 35.5617714323462,382.863356158526 M 64.6615074412866,385.573773998986 L 64.3073482384679,385.740822018304 L 63.9220215090012,385.810514867705 L 63.5317866327173,385.778103094677 L 63.1632374715412,385.645795507987 L 62.8414900417508,385.422608651021 L 62.5884708989737,385.123752339246 L 62.4214228796559,384.769593136428 L 62.3517300302545,384.384266406961 L 62.3841418032831,383.994031530677 L 62.5164493899725,383.625482369501 L 62.7396362469388,383.30373493971 L 63.0384925587135,383.050715796933 L 63.3926517615323,382.883667777616 L 63.7779784909989,382.813974928214 L 64.1682133672828,382.846386701243 L 64.5367625284589,382.978694287932 L 64.8585099582492,383.201881144899 L 65.1115291010265,383.500737456673 L 65.2785771203441,383.854896659492 L 65.3482699697456,384.240223388959 L 65.315858196717,384.630458265243 L 65.1835506100276,384.999007426419 L 64.9603637530613,385.320754856209 L 64.6615074412866,385.573773998986 M 79.1875226934097,436.605927430761 L 78.7962432344391,436.590624924858 L 78.4222568796886,436.47457326326 L 78.0910501811929,436.265681174921 L 77.8251943281093,435.978184310451 L 77.6428069574781,435.631675106051 L 77.5563174671983,435.24976759137 L 77.5716199731016,434.858488132399 L 77.6876716346997,434.484501777648 L 77.896563723039,434.153295079152 L 78.1840605875095,433.887439226069 L 78.5305697919086,433.705051855437 L 78.9124773065903,433.618562365158 L 79.3037567655608,433.633864871061 L 79.6777431203113,433.749916532659 L 80.0089498188071,433.958808620998 L 80.2748056718906,434.246305485469 L 80.4571930425219,434.592814689868 L 80.5436825328019,434.97472220455 L 80.5283800268983,435.366001663521 L 80.4123283653002,435.739988018271 L 80.2034362769611,436.071194716767 L 79.9159394124905,436.337050569851 L 79.5694302080913,436.519437940482 L 79.1875226934097,436.605927430761 M 32.2988887394337,436.024016330306 L 32.35,436.41224489796 L 32.2988887394337,436.800473465614 L 32.1490381056766,437.16224489796 L 31.9106601717798,437.472905069739 L 31.6,437.711283003636 L 31.2382285676537,437.861133637393 L 30.85,437.91224489796 L 30.4617714323463,437.861133637393 L 30.1,437.711283003636 L 29.7893398282202,437.472905069739 L 29.5509618943233,437.16224489796 L 29.4011112605663,436.800473465614 L 29.35,436.41224489796 L 29.4011112605663,436.024016330306 L 29.5509618943233,435.66224489796 L 29.7893398282202,435.35158472618 L 30.1,435.113206792283 L 30.4617714323463,434.963356158526 L 30.85,434.91224489796 L 31.2382285676537,434.963356158526 L 31.6,435.113206792283 L 31.9106601717798,435.35158472618 L 32.1490381056766,435.66224489796 L 32.2988887394337,436.024016330306 M 49.6117714323462,456.561133637393 L 49.2499999999999,456.411283003636 L 48.9393398282201,456.17290506974 L 48.7009618943233,455.862244897959 L 48.5511112605664,455.500473465614 L 48.5000000000001,455.11224489796 L 48.5511112605664,454.724016330306 L 48.7009618943233,454.36224489796 L 48.9393398282201,454.05158472618 L 49.2499999999999,453.813206792283 L 49.6117714323462,453.663356158527 L 49.9999999999999,453.61224489796 L 50.3882285676538,453.663356158527 L 50.7499999999999,453.813206792283 L 51.0606601717799,454.05158472618 L 51.2990381056767,454.36224489796 L 51.4488887394336,454.724016330306 L 51.5,455.11224489796 L 51.4488887394336,455.500473465613 L 51.2990381056767,455.862244897959 L 51.0606601717799,456.17290506974 L 50.7499999999999,456.411283003636 L 50.3882285676538,456.561133637393 L 49.9999999999999,456.61224489796 L 49.6117714323462,456.561133637393 M 51.246244164294,346.177454215834 L 51.4198391513617,346.528450743116 L 51.4966744466594,346.912417042543 L 51.4715138517886,347.303186445344 L 51.3460720197102,347.674128662494 L 51.1288976039776,347.999964594905 L 50.8347906821254,348.258489062254 L 50.4837941548432,348.432084049322 L 50.0998278554162,348.508919344619 L 49.7090584526159,348.483758749748 L 49.3381162354661,348.35831691767 L 49.0122803030547,348.141142501937 L 48.7537558357061,347.847035580085 L 48.5801608486384,347.496039052803 L 48.5033255533407,347.112072753376 L 48.5284861482114,346.721303350576 L 48.6539279802899,346.350361133426 L 48.8711023960224,346.024525201014 L 49.1652093178747,345.766000733666 L 49.5162058451566,345.592405746598 L 49.9001721445837,345.5155704513 L 50.2909415473842,345.540731046171 L 50.6618837645339,345.66617287825 L 50.9877196969453,345.883347293982 L 51.246244164294,346.177454215834 M 18.0,376.11224489796 L 15.0,376.11224489796 L 15.0,366.11224489796 L 18.0,366.11224489796 L 18.0,376.11224489796 M 15.0,426.11224489796 L 18.0,426.11224489796 L 18.0,436.11224489796 L 15.0,436.11224489796 L 15.0,426.11224489796 M 66.8,419.211283003637 L 66.4382285676538,419.361133637393 L 66.05,419.41224489796 L 65.6617714323462,419.361133637393 L 65.2999999999999,419.211283003637 L 64.9893398282202,418.972905069739 L 64.7509618943234,418.66224489796 L 64.6011112605664,418.300473465613 L 64.5500000000001,417.91224489796 L 64.6011112605664,417.524016330306 L 64.7509618943234,417.16224489796 L 64.9893398282202,416.85158472618 L 65.2999999999999,416.613206792283 L 65.6617714323462,416.463356158526 L 66.05,416.41224489796 L 66.4382285676538,416.463356158526 L 66.8,416.613206792283 L 67.1106601717798,416.85158472618 L 67.3490381056767,417.16224489796 L 67.4988887394336,417.524016330306 L 67.55,417.91224489796 L 67.4988887394336,418.300473465613 L 67.3490381056767,418.66224489796 L 67.1106601717799,418.972905069739 L 66.8,419.211283003637 M 69.8509618943233,365.062244897959 L 70.0893398282201,364.75158472618 L 70.3999999999999,364.513206792283 L 70.7617714323462,364.363356158526 L 71.15,364.31224489796 L 71.5382285676537,364.363356158526 L 71.9,364.513206792283 L 72.2106601717799,364.75158472618 L 72.4490381056766,365.062244897959 L 72.5988887394336,365.424016330306 L 72.6499999999999,365.81224489796 L 72.5988887394336,366.200473465613 L 72.4490381056766,366.56224489796 L 72.2106601717799,366.87290506974 L 71.9,367.111283003636 L 71.5382285676537,367.261133637394 L 71.15,367.31224489796 L 70.7617714323462,367.261133637394 L 70.4,367.111283003636 L 70.0893398282201,366.87290506974 L 69.8509618943233,366.56224489796 L 69.7011112605663,366.200473465614 L 69.6499999999999,365.81224489796 L 69.7011112605663,365.424016330306 L 69.8509618943233,365.062244897959 M 24.4283800268983,367.366001663521 L 24.3123283653003,367.739988018271 L 24.103436276961,368.071194716767 L 23.8159394124906,368.337050569851 L 23.4694302080912,368.519437940482 L 23.0875226934096,368.605927430762 L 22.6962432344391,368.590624924859 L 22.3222568796888,368.47457326326 L 21.991050181193,368.265681174921 L 21.7251943281093,367.978184310451 L 21.542806957478,367.631675106051 L 21.4563174671981,367.24976759137 L 21.4716199731016,366.858488132399 L 21.5876716346997,366.484501777648 L 21.7965637230389,366.153295079152 L 22.0840605875094,365.887439226069 L 22.4305697919086,365.705051855437 L 22.8124773065904,365.618562365158 L 23.2037567655609,365.633864871062 L 23.5777431203112,365.749916532659 L 23.908949818807,365.958808620999 L 24.1748056718906,366.246305485469 L 24.357193042522,366.592814689868 L 24.4436825328019,366.97472220455 L 24.4283800268983,367.366001663521 M 36.721422879656,418.369593136427 L 36.6517300302546,417.984266406961 L 36.6841418032831,417.594031530677 L 36.8164493899725,417.225482369501 L 37.0396362469388,416.903734939711 L 37.3384925587133,416.650715796934 L 37.6926517615322,416.483667777616 L 38.0779784909989,416.413974928214 L 38.4682133672828,416.446386701243 L 38.836762528459,416.578694287933 L 39.1585099582493,416.801881144899 L 39.4115291010264,417.100737456673 L 39.5785771203441,417.454896659492 L 39.6482699697456,417.840223388959 L 39.6158581967171,418.230458265243 L 39.4835506100276,418.599007426419 L 39.2603637530613,418.920754856209 L 38.9615074412866,419.173773998986 L 38.6073482384678,419.340822018303 L 38.2220215090011,419.410514867706 L 37.8317866327171,419.378103094677 L 37.4632374715412,419.245795507987 L 37.1414900417509,419.022608651021 L 36.8884708989736,418.723752339246 L 36.721422879656,418.369593136427 M 64.9999999999999,345.61224489796 L 75.0,345.61224489796 L 75.0,348.61224489796 L 64.9999999999999,348.61224489796 L 64.9999999999999,345.61224489796 M 34.9999999999999,456.61224489796 L 25.0,456.61224489796 L 25.0,453.61224489796 L 34.9999999999999,453.61224489796 L 34.9999999999999,456.61224489796 M 25.0,345.61224489796 L 34.9999999999999,345.61224489796 L 34.9999999999999,348.61224489796 L 25.0,348.61224489796 L 25.0,345.61224489796 M 64.9999999999999,453.61224489796 L 75.0,453.61224489796 L 75.0,456.61224489796 L 64.9999999999999,456.61224489796 L 64.9999999999999,453.61224489796 "
  />
  <path id="face4-cut"
 style="fill:none;stroke:rgb(0,0,255);stroke-width:1;stroke-miterlimit:4;stroke-dasharray:none;stroke-linejoin:round;stroke-linecap:round"
        d="M 75.6,468.61224489796 L 10.0,468.61224489796 L 10.0,486.031486378827 L 36.9771329048245,486.031486378827 L 36.9771329048245,566.031486378826 L 10.0,566.031486378826 L 10.0,583.61224489796 L 75.6,583.61224489796 L 75.6,468.61224489796 M 50.0,473.61224489796 L 50.0,470.61224489796 L 60.0,470.61224489796 L 60.0,473.61224489796 L 50.0,473.61224489796 M 29.9999999999999,470.61224489796 L 29.9999999999999,473.61224489796 L 20.0,473.61224489796 L 20.0,470.61224489796 L 29.9999999999999,470.61224489796 M 19.9999999999999,581.61224489796 L 19.9999999999999,578.612244897961 L 29.9999999999999,578.612244897961 L 29.9999999999999,581.61224489796 L 19.9999999999999,581.61224489796 M 60.0,578.612244897961 L 60.0,581.61224489796 L 50.0,581.61224489796 L 50.0,578.612244897961 L 60.0,578.612244897961 M 38.5511112605664,472.500473465614 L 38.5,472.11224489796 L 38.5511112605664,471.724016330306 L 38.7009618943234,471.36224489796 L 38.9393398282202,471.05158472618 L 39.2500000000001,470.813206792284 L 39.6117714323462,470.663356158526 L 40.0000000000001,470.61224489796 L 40.3882285676538,470.663356158527 L 40.7499999999999,470.813206792284 L 41.0606601717798,471.05158472618 L 41.2990381056766,471.36224489796 L 41.4488887394336,471.724016330306 L 41.5,472.11224489796 L 41.4488887394336,472.500473465614 L 41.2990381056766,472.86224489796 L 41.0606601717798,473.17290506974 L 40.7500000000001,473.411283003637 L 40.3882285676538,473.561133637394 L 40.0000000000001,473.61224489796 L 39.6117714323462,473.561133637394 L 39.2500000000001,473.411283003637 L 38.9393398282202,473.17290506974 L 38.7009618943234,472.86224489796 L 38.5511112605664,472.500473465614 M 40.7500000000001,578.813206792284 L 41.0606601717798,579.05158472618 L 41.2990381056766,579.36224489796 L 41.4488887394336,579.724016330306 L 41.5,580.11224489796 L 41.4488887394336,580.500473465614 L 41.2990381056766,580.86224489796 L 41.0606601717798,581.17290506974 L 40.7500000000001,581.411283003637 L 40.3882285676538,581.561133637394 L 40.0000000000001,581.61224489796 L 39.6117714323462,581.561133637394 L 39.2500000000001,581.411283003637 L 38.9393398282202,581.17290506974 L 38.7009618943234,580.86224489796 L 38.5511112605664,580.500473465614 L 38.5,580.11224489796 L 38.5511112605664,579.724016330306 L 38.7009618943234,579.36224489796 L 38.9393398282202,579.05158472618 L 39.2500000000001,578.813206792284 L 39.6117714323462,578.663356158527 L 40.0000000000001,578.612244897961 L 40.3882285676538,578.663356158527 L 40.7500000000001,578.813206792284 "
  />
  <path id="face5-cut"
 style="fill:none;stroke:rgb(0,0,255);stroke-width:1;stroke-miterlimit:4;stroke-dasharray:none;stroke-linejoin:round;stroke-linecap:round"
        d="M 47.4916407684016,619.655468253384 L 46.9849282331384,618.793353176026 L 45.9072843864414,619.426743845105 L 44.6405030482833,617.271456151712 L 45.7181468949802,616.638065482632 L 43.6912967539276,613.189605173203 L 32.0527432096012,620.030224399256 L 29.5191805332852,615.719649012468 L 20.8980297597101,620.7867743651 L 23.4315924360259,625.097349751887 L 13.0,631.228571428572 L 13.0,635.224489795919 L 10.0,635.224489795919 L 10.0,640.224489795919 L 13.0,640.224489795919 L 13.0,643.724489795919 L 17.5000000000001,643.724489795919 L 17.5000000000001,642.474489795919 L 20.0000000000001,642.474489795919 L 20.0000000000001,643.724489795919 L 20.5000000000001,643.724489795919 L 20.5000000000001,646.724489795919 L 20.0000000000001,646.724489795919 L 20.0000000000001,647.974489795919 L 17.5000000000001,647.974489795919 L 17.5000000000001,646.724489795919 L 13.0,646.724489795919 L 13.0,650.224489795919 L 10.0,650.224489795919 L 10.0,655.224489795919 L 13.0,655.224489795919 L 13.0,660.224489795919 L 20.0000000000001,660.224489795919 L 20.0000000000001,667.224489795919 L 30.0000000000001,667.224489795919 L 30.0000000000001,660.224489795919 L 43.5000000000001,660.224489795919 L 43.5000000000001,656.224489795919 L 42.2500000000001,656.224489795919 L 42.2500000000001,653.724489795919 L 43.5000000000001,653.724489795919 L 43.5000000000001,653.224489795919 L 46.5,653.224489795919 L 46.5,653.724489795919 L 47.7500000000001,653.724489795919 L 47.7500000000001,656.224489795919 L 46.5,656.224489795919 L 46.5,660.224489795919 L 59.9999999999999,660.224489795919 L 59.9999999999999,667.224489795919 L 70.0000000000001,667.224489795919 L 70.0000000000001,660.224489795919 L 77.0000000000001,660.224489795919 L 77.0000000000001,650.224489795919 L 80.0000000000001,650.224489795919 L 80.0000000000001,640.224489795919 L 77.0000000000001,640.224489795919 L 77.0000000000001,631.724489795919 L 72.5,631.724489795919 L 72.5,632.974489795919 L 70.0000000000001,632.974489795919 L 70.0000000000001,631.724489795919 L 69.5,631.724489795919 L 69.5,628.724489795919 L 70.0000000000001,628.724489795919 L 70.0000000000001,627.474489795919 L 72.5,627.474489795919 L 72.5,628.724489795919 L 77.0000000000001,628.724489795919 L 77.0000000000001,620.224489795919 L 80.0000000000001,620.224489795919 L 80.0000000000001,610.224489795919 L 77.0000000000001,610.224489795919 L 77.0000000000001,600.224489795919 L 77.0000000000001,593.61224489796 L 66.552876933938,599.752594781687 L 64.019314257622,595.442019394899 L 55.3981634840469,600.509144747531 L 57.9317261603628,604.819720134318 L 46.2776419860001,611.669467567413 L 48.3044921270529,615.117927876843 L 49.3821359737498,614.484537207764 L 50.6489173119077,616.639824901158 L 49.5712734652108,617.273215570237 L 50.077986000474,618.135330647595 L 47.4916407684016,619.655468253384 "
  />
  <path id="face0-interior"
 style="fill:none;stroke:rgb(255,0,0);stroke-width:1;stroke-miterlimit:4;stroke-dasharray:none;stroke-linejoin:round;stroke-linecap:round"
        d="M 47.4916407684016,36.0432233554236 M 46.9849282331384,35.181108278066 M 45.9072843864414,35.8144989471451 M 44.6405030482833,33.6592112537512 M 45.7181468949802,33.0258205846722 M 43.6912967539276,29.5773602752424 M 32.0527432096012,36.4179795012953 M 29.5191805332852,32.1074041145076 M 20.8980297597101,37.1745294671393 M 23.4315924360259,41.485104853927 M 13.0,47.6163265306116 M 13.0,51.6122448979587 M 10.0,51.6122448979588 M 10.0,56.6122448979587 M 13.0,56.6122448979587 M 13.0,60.1122448979586 M 17.5000000000001,60.1122448979586 M 17.5000000000001,58.8622448979589 M 20.0000000000001,58.8622448979589 M 20.0000000000001,60.1122448979586 M 20.5000000000001,60.1122448979586 M 20.5000000000001,63.1122448979587 M 20.0000000000001,63.1122448979587 M 20.0000000000001,64.3622448979587 M 17.5000000000001,64.3622448979587 M 17.5000000000001,63.1122448979587 M 13.0,63.1122448979587 M 13.0,66.6122448979586 M 10.0,66.6122448979586 M 10.0,71.6122448979589 M 13.0,71.6122448979589 M 13.0,76.6122448979588 M 20.0000000000001,76.6122448979588 M 20.0000000000001,83.6122448979587 M 30.0000000000001,83.6122448979587 M 30.0000000000001,76.6122448979588 M 43.5000000000001,76.6122448979588 M 43.5000000000001,72.6122448979587 M 42.2500000000001,72.6122448979587 M 42.2500000000001,70.1122448979589 M 43.5000000000001,70.1122448979589 M 43.5000000000001,69.6122448979586 M 46.5,69.6122448979586 M 46.5,70.1122448979589 M 47.7500000000001,70.1122448979589 M 47.7500000000001,72.6122448979587 M 46.5,72.6122448979587 M 46.5,76.6122448979588 M 60.0,76.6122448979588 M 60.0,83.6122448979587 M 70.0000000000001,83.6122448979587 M 70.0000000000001,76.6122448979588 M 77.0000000000001,76.6122448979588 M 77.0000000000001,66.6122448979586 M 80.0000000000001,66.6122448979586 M 80.0000000000001,56.6122448979587 M 77.0000000000001,56.6122448979587 M 77.0000000000001,48.1122448979588 M 72.5,48.1122448979588 M 72.5,49.3622448979589 M 70.0000000000001,49.3622448979589 M 70.0000000000001,48.1122448979588 M 69.5,48.1122448979588 M 69.5,45.1122448979584 M 70.0000000000001,45.1122448979584 M 70.0000000000001,43.8622448979587 M 72.5,43.8622448979587 M 72.5,45.1122448979584 M 77.0000000000001,45.1122448979584 M 77.0000000000001,36.6122448979585 M 80.0000000000001,36.6122448979585 M 80.0000000000001,26.6122448979587 M 77.0000000000001,26.6122448979587 M 77.0000000000001,16.6122448979588 M 77.0000000000001,10.0 M 66.552876933938,16.1403498837263 M 64.019314257622,11.8297744969386 M 55.3981634840469,16.8968998495706 M 57.9317261603628,21.207475236358 M 46.2776419860001,28.0572226694526 M 48.3044921270529,31.5056829788828 M 49.3821359737498,30.8722923098038 M 50.6489173119077,33.0275800031976 M 49.5712734652108,33.6609706722767 M 50.077986000474,34.5230857496342 M 53.8500000000001,73.6122448979588 M 53.8500000000001,61.6122448979588 M 69.8500000000001,61.6122448979588 M 69.8500000000001,73.6122448979588 M 23.9999999999999,61.6122448979588 M 39.9999999999999,61.6122448979588 M 39.9999999999999,73.6122448979588 M 23.9999999999999,73.6122448979588 "
  />
  <path id="face1-interior"
 style="fill:none;stroke:rgb(255,0,0);stroke-width:1;stroke-miterlimit:4;stroke-dasharray:none;stroke-linejoin:round;stroke-linecap:round"
        d="M 10.0,93.6122448979587 M 10.0,208.612244897959 M 102.8,208.612244897959 M 102.8,93.6122448979587 M 75.2355536126369,121.06527351846 M 75.9000000000001,126.112244897959 M 75.2355536126369,131.159216277458 M 73.2874953737967,135.862244897958 M 70.1885822331378,139.900827131097 M 66.15,142.999740271755 M 61.4469713794991,144.947798510596 M 56.4,145.612244897959 M 51.3530286205009,144.947798510596 M 46.65,142.999740271755 M 42.6114177668624,139.900827131097 M 39.5125046262035,135.862244897958 M 37.5644463873633,131.159216277458 M 36.8999999999999,126.112244897959 M 37.5644463873633,121.06527351846 M 39.5125046262035,116.362244897959 M 42.6114177668624,112.323662664821 M 46.65,109.224749524162 M 51.3530286205009,107.276691285322 M 56.4,106.612244897959 M 61.4469713794991,107.276691285322 M 66.15,109.224749524162 M 70.1885822331376,112.323662664821 M 73.2874953737965,116.362244897959 M 38.4342850532442,142.793372360953 M 38.566758364488,142.424882736258 M 38.7900898899061,142.103235706964 M 39.0890599551138,141.85035098657 M 39.4432942442388,141.683462250859 M 39.8286522758769,141.613942691372 M 40.2188725370062,141.646529951203 M 40.5873621617005,141.779003262447 M 40.9090091909945,142.002334787865 M 41.1618939113889,142.301304853072 M 41.3287826471002,142.655539142198 M 41.3983022065867,143.040897173836 M 41.3657149467557,143.431117434965 M 41.2332416355119,143.799607059659 M 41.009910110094,144.121254088953 M 40.7109400448861,144.374138809348 M 40.3567057557613,144.541027545059 M 39.9713477241232,144.610547104545 M 39.5811274629937,144.577959844714 M 39.2126378382996,144.44548653347 M 38.8909908090056,144.222155008053 M 38.6381060886113,143.923184942845 M 38.4712173528999,143.56895065372 M 38.4016977934132,143.183592622082 M 39.2778454696436,110.47713454198 M 38.94578543685,110.269601613701 M 38.6787535496209,109.983196737865 M 38.4949475897801,109.637437933457 M 38.4068936297368,109.255888091601 M 38.4205924013522,108.864549203481 M 38.5351103559785,108.490090367602 M 38.7426432842583,108.158030334809 M 39.0290481600935,107.89099844758 M 39.3748069645022,107.707192487739 M 39.7563568063576,107.619138527696 M 40.1476956944782,107.632837299311 M 40.5221545303565,107.747355253938 M 40.8542145631501,107.954888182217 M 41.121246450379,108.241293058052 M 41.3050524102198,108.587051862461 M 41.3931063702631,108.968601704316 M 41.3794075986479,109.359940592437 M 41.2648896440214,109.734399428315 M 41.0573567157417,110.066459461109 M 40.7709518399067,110.333491348338 M 40.4251930354977,110.517297308179 M 40.0436431936424,110.605351268222 M 39.6523043055218,110.591652496607 M 38.5627138959068,193.891704886332 M 38.432423629543,193.522437736168 M 38.402146267541,193.132031456698 M 38.473945162086,192.747091590691 M 38.6429273371676,192.393851153873 M 38.8975769368105,192.096382898253 M 39.2205400116275,191.874958793865 M 39.589807161791,191.744668527501 M 39.9802134412607,191.7143911655 M 40.3651533072677,191.786190060044 M 40.7183937440862,191.955172235126 M 41.0158619997052,192.209821834769 M 41.2372861040931,192.532784909586 M 41.3675763704571,192.90205205975 M 41.3978537324589,193.292458339219 M 41.3260548379141,193.677398205226 M 41.1570726628323,194.030638642045 M 40.9024230631894,194.328106897664 M 40.5794599883727,194.549531002052 M 40.2101928382089,194.679821268415 M 39.8197865587392,194.710098630418 M 39.4348466927324,194.638299735872 M 39.0816062559137,194.469317560791 M 38.7841380002949,194.214667961148 M 39.9,160.712244897959 M 39.5117714323463,160.661133637392 M 39.15,160.511283003635 M 38.8393398282201,160.272905069739 M 38.6009618943234,159.962244897959 M 38.4511112605664,159.600473465613 M 38.3999999999999,159.212244897959 M 38.4511112605664,158.824016330305 M 38.6009618943234,158.462244897959 M 38.8393398282201,158.151584726179 M 39.15,157.913206792282 M 39.5117714323463,157.763356158525 M 39.9,157.712244897959 M 40.2882285676538,157.763356158525 M 40.65,157.913206792282 M 40.9606601717798,158.151584726179 M 41.1990381056767,158.462244897959 M 41.3488887394337,158.824016330305 M 41.4,159.212244897959 M 41.3488887394337,159.600473465613 M 41.1990381056767,159.962244897959 M 40.9606601717798,160.272905069739 M 40.65,160.511283003635 M 40.2882285676538,160.661133637392 M 59.6233192270695,195.443995030497 M 54.5359440828465,195.622945440127 M 49.5756012688797,194.479088685506 M 45.0803299505864,192.090376714152 M 41.3564754395214,188.619596299377 M 38.6578122666534,184.303275390713 M 37.1682498674613,179.435564125028 M 36.9892994578318,174.348188980806 M 38.1331562124519,169.387846166838 M 40.5218681838067,164.892574848545 M 43.9926485985816,161.16872033748 M 48.3089695072455,158.470057164613 M 53.1766807729305,156.98049476542 M 58.2640559171535,156.80154435579 M 63.2243987311203,157.945401110411 M 67.7196700494137,160.334113081766 M 71.4435245604786,163.80489349654 M 74.1421877333466,168.121214405204 M 75.6317501325387,172.988925670889 M 75.8107005421682,178.076300815113 M 74.6668437875481,183.036643629079 M 72.2781318161933,187.531914947373 M 68.8073514014184,191.255769458437 M 64.4910304927545,193.954432631306 M 71.4,98.6122448979586 M 71.4,95.6122448979588 M 81.4,95.6122448979584 M 81.4,98.6122448979587 M 31.4,95.6122448979585 M 41.4,95.6122448979586 M 41.4,98.6122448979586 M 31.4,98.6122448979586 M 71.4,206.612244897959 M 71.4,203.612244897959 M 81.4,203.612244897959 M 81.4,206.612244897959 M 31.4,206.612244897959 M 31.4,203.612244897959 M 41.4,203.612244897959 M 41.4,206.612244897959 M 56.0117714323462,98.4611336373923 M 55.65,98.3112830036354 M 55.3393398282202,98.0729050697385 M 55.1009618943233,97.7622448979588 M 54.9511112605664,97.4004734656126 M 54.9,97.0122448979587 M 54.9511112605664,96.6240163303049 M 55.1009618943233,96.2622448979588 M 55.3393398282202,95.9515847261787 M 55.65,95.7132067922822 M 56.0117714323462,95.5633561585249 M 56.4,95.5122448979587 M 56.7882285676538,95.5633561585249 M 57.15,95.7132067922823 M 57.4606601717798,95.9515847261789 M 57.6990381056767,96.2622448979588 M 57.8488887394336,96.6240163303047 M 57.9,97.0122448979586 M 57.8488887394336,97.4004734656126 M 57.6990381056767,97.7622448979589 M 57.4606601717798,98.0729050697384 M 57.15,98.3112830036354 M 56.7882285676538,98.4611336373923 M 56.4,98.5122448979586 M 57.15,203.813206792282 M 57.4606601717798,204.051584726179 M 57.6990381056767,204.362244897959 M 57.8488887394336,204.724016330305 M 57.9,205.112244897959 M 57.8488887394336,205.500473465612 M 57.6990381056767,205.862244897958 M 57.4606601717798,206.172905069739 M 57.15,206.411283003635 M 56.7882285676538,206.561133637392 M 56.4,206.612244897959 M 56.0117714323462,206.561133637392 M 55.65,206.411283003635 M 55.3393398282202,206.172905069739 M 55.1009618943233,205.862244897958 M 54.9511112605664,205.500473465612 M 54.9,205.112244897959 M 54.9511112605664,204.724016330305 M 55.1009618943233,204.362244897959 M 55.3393398282202,204.051584726179 M 55.65,203.813206792282 M 56.0117714323462,203.663356158526 M 56.4,203.612244897959 M 56.7882285676538,203.663356158526 "
  />
  <path id="face2-interior"
 style="fill:none;stroke:rgb(255,0,0);stroke-width:1;stroke-miterlimit:4;stroke-dasharray:none;stroke-linejoin:round;stroke-linecap:round"
        d="M 10.0,251.112244897959 M 17.0,251.112244897959 M 17.0,301.112244897959 M 10.0,301.112244897959 M 10.0,311.112244897959 M 17.0,311.112244897959 M 17.0,333.61224489796 M 44.0000000000001,333.61224489796 M 44.0000000000001,218.612244897959 M 17.0,218.612244897959 M 17.0,241.112244897959 M 10.0,241.112244897959 M 26.9999999999999,220.612244897959 M 26.9999999999999,223.612244897959 M 21.9999999999999,223.612244897959 M 21.9999999999999,220.612244897959 M 21.9999999999999,331.612244897959 M 21.9999999999999,328.612244897959 M 27.0000000000001,328.612244897959 M 27.0000000000001,331.612244897959 M 41.9999999999999,223.612244897959 M 37.0,223.612244897959 M 37.0,220.612244897959 M 41.9999999999999,220.612244897959 M 41.9999999999999,331.612244897959 M 37.0,331.612244897959 M 37.0,328.612244897959 M 41.9999999999999,328.612244897959 M 30.5511112605664,222.500473465613 M 30.5,222.112244897959 M 30.5511112605664,221.724016330306 M 30.7009618943233,221.362244897959 M 30.9393398282202,221.051584726179 M 31.2499999999998,220.813206792283 M 31.6117714323461,220.663356158525 M 32.0000000000001,220.612244897959 M 32.3882285676538,220.663356158525 M 32.7499999999999,220.813206792283 M 33.0606601717798,221.051584726179 M 33.2990381056766,221.362244897959 M 33.4488887394335,221.724016330306 M 33.5000000000001,222.112244897959 M 33.4488887394335,222.500473465613 M 33.2990381056766,222.862244897959 M 33.0606601717798,223.172905069739 M 32.7499999999999,223.411283003636 M 32.3882285676538,223.561133637393 M 32.0000000000001,223.612244897959 M 31.6117714323461,223.561133637393 M 31.2499999999998,223.411283003636 M 30.9393398282202,223.172905069739 M 30.7009618943233,222.862244897959 M 30.5140458402832,330.317038050238 M 30.5116741323315,329.925466656109 M 30.6107293726865,329.546623890495 M 30.8044611104148,329.206327261808 M 31.079666847747,328.927767422925 M 31.4175917684826,328.729927766523 M 31.7952068477211,328.626290738242 M 32.1867782418507,328.623919030291 M 32.5656210074638,328.722974270646 M 32.9059176361511,328.916706008375 M 33.1844774750346,329.191911745706 M 33.3823171314357,329.529836666442 M 33.4859541597167,329.90745174568 M 33.4883258676686,330.29902313981 M 33.3892706273134,330.677865905423 M 33.1955388895851,331.018162534111 M 32.9203331522531,331.296722372994 M 32.5824082315174,331.494562029395 M 32.204793152279,331.598199057677 M 31.8132217581492,331.600570765628 M 31.434378992536,331.501515525273 M 31.0940823638489,331.307783787544 M 30.8155225249655,331.032578050213 M 30.6176828685643,330.694653129476 "
  />
  <path id="face3-interior"
 style="fill:none;stroke:rgb(255,0,0);stroke-width:1;stroke-miterlimit:4;stroke-dasharray:none;stroke-linejoin:round;stroke-linecap:round"
        d="M 10.0,458.61224489796 M 90.0000000000001,458.61224489796 M 90.0000000000001,343.61224489796 M 10.0,343.61224489796 M 35.5617714323462,382.863356158526 M 35.9499999999999,382.81224489796 M 36.3382285676539,382.863356158526 M 36.7,383.013206792283 M 37.01066017178,383.25158472618 M 37.2490381056767,383.56224489796 M 37.3988887394336,383.924016330306 M 37.45,384.31224489796 M 37.3988887394336,384.700473465614 M 37.2490381056767,385.06224489796 M 37.01066017178,385.372905069739 M 36.6999999999999,385.611283003636 M 36.3382285676538,385.761133637393 M 35.95,385.81224489796 M 35.5617714323462,385.761133637393 M 35.1999999999999,385.611283003636 M 34.8893398282201,385.372905069739 M 34.6509618943234,385.06224489796 M 34.5011112605664,384.700473465614 M 34.4500000000001,384.31224489796 M 34.5011112605664,383.924016330306 M 34.6509618943234,383.56224489796 M 34.8893398282202,383.25158472618 M 35.1999999999999,383.013206792283 M 64.6615074412866,385.573773998986 M 64.3073482384679,385.740822018304 M 63.9220215090012,385.810514867705 M 63.5317866327173,385.778103094677 M 63.1632374715412,385.645795507987 M 62.8414900417508,385.422608651021 M 62.5884708989737,385.123752339246 M 62.4214228796559,384.769593136428 M 62.3517300302545,384.384266406961 M 62.3841418032831,383.994031530677 M 62.5164493899725,383.625482369501 M 62.7396362469388,383.30373493971 M 63.0384925587135,383.050715796933 M 63.3926517615323,382.883667777616 M 63.7779784909989,382.813974928214 M 64.1682133672828,382.846386701243 M 64.5367625284589,382.978694287932 M 64.8585099582492,383.201881144899 M 65.1115291010265,383.500737456673 M 65.2785771203441,383.854896659492 M 65.3482699697456,384.240223388959 M 65.315858196717,384.630458265243 M 65.1835506100276,384.999007426419 M 64.9603637530613,385.320754856209 M 79.1875226934097,436.605927430761 M 78.7962432344391,436.590624924858 M 78.4222568796886,436.47457326326 M 78.0910501811929,436.265681174921 M 77.8251943281093,435.978184310451 M 77.6428069574781,435.631675106051 M 77.5563174671983,435.24976759137 M 77.5716199731016,434.858488132399 M 77.6876716346997,434.484501777648 M 77.896563723039,434.153295079152 M 78.1840605875095,433.887439226069 M 78.5305697919086,433.705051855437 M 78.9124773065903,433.618562365158 M 79.3037567655608,433.633864871061 M 79.6777431203113,433.749916532659 M 80.0089498188071,433.958808620998 M 80.2748056718906,434.246305485469 M 80.4571930425219,434.592814689868 M 80.5436825328019,434.97472220455 M 80.5283800268983,435.366001663521 M 80.4123283653002,435.739988018271 M 80.2034362769611,436.071194716767 M 79.9159394124905,436.337050569851 M 79.5694302080913,436.519437940482 M 32.2988887394337,436.024016330306 M 32.35,436.41224489796 M 32.2988887394337,436.800473465614 M 32.1490381056766,437.16224489796 M 31.9106601717798,437.472905069739 M 31.6,437.711283003636 M 31.2382285676537,437.861133637393 M 30.85,437.91224489796 M 30.4617714323463,437.861133637393 M 30.1,437.711283003636 M 29.7893398282202,437.472905069739 M 29.5509618943233,437.16224489796 M 29.4011112605663,436.800473465614 M 29.35,436.41224489796 M 29.4011112605663,436.024016330306 M 29.5509618943233,435.66224489796 M 29.7893398282202,435.35158472618 M 30.1,435.113206792283 M 30.4617714323463,434.963356158526 M 30.85,434.91224489796 M 31.2382285676537,434.963356158526 M 31.6,435.113206792283 M 31.9106601717798,435.35158472618 M 32.1490381056766,435.66224489796 M 49.6117714323462,456.561133637393 M 49.2499999999999,456.411283003636 M 48.9393398282201,456.17290506974 M 48.7009618943233,455.862244897959 M 48.5511112605664,455.500473465614 M 48.5000000000001,455.11224489796 M 48.5511112605664,454.724016330306 M 48.7009618943233,454.36224489796 M 48.9393398282201,454.05158472618 M 49.2499999999999,453.813206792283 M 49.6117714323462,453.663356158527 M 49.9999999999999,453.61224489796 M 50.3882285676538,453.663356158527 M 50.7499999999999,453.813206792283 M 51.0606601717799,454.05158472618 M 51.2990381056767,454.36224489796 M 51.4488887394336,454.724016330306 M 51.5,455.11224489796 M 51.4488887394336,455.500473465613 M 51.2990381056767,455.862244897959 M 51.0606601717799,456.17290506974 M 50.7499999999999,456.411283003636 M 50.3882285676538,456.561133637393 M 49.9999999999999,456.61224489796 M 51.246244164294,346.177454215834 M 51.4198391513617,346.528450743116 M 51.4966744466594,346.912417042543 M 51.4715138517886,347.303186445344 M 51.3460720197102,347.674128662494 M 51.1288976039776,347.999964594905 M 50.8347906821254,348.258489062254 M 50.4837941548432,348.432084049322 M 50.0998278554162,348.508919344619 M 49.7090584526159,348.483758749748 M 49.3381162354661,348.35831691767 M 49.0122803030547,348.141142501937 M 48.7537558357061,347.847035580085 M 48.5801608486384,347.496039052803 M 48.5033255533407,347.112072753376 M 48.5284861482114,346.721303350576 M 48.6539279802899,346.350361133426 M 48.8711023960224,346.024525201014 M 49.1652093178747,345.766000733666 M 49.5162058451566,345.592405746598 M 49.9001721445837,345.5155704513 M 50.2909415473842,345.540731046171 M 50.6618837645339,345.66617287825 M 50.9877196969453,345.883347293982 M 18.0,376.11224489796 M 15.0,376.11224489796 M 15.0,366.11224489796 M 18.0,366.11224489796 M 15.0,426.11224489796 M 18.0,426.11224489796 M 18.0,436.11224489796 M 15.0,436.11224489796 M 66.8,419.211283003637 M 66.4382285676538,419.361133637393 M 66.05,419.41224489796 M 65.6617714323462,419.361133637393 M 65.2999999999999,419.211283003637 M 64.9893398282202,418.972905069739 M 64.7509618943234,418.66224489796 M 64.6011112605664,418.300473465613 M 64.5500000000001,417.91224489796 M 64.6011112605664,417.524016330306 M 64.7509618943234,417.16224489796 M 64.9893398282202,416.85158472618 M 65.2999999999999,416.613206792283 M 65.6617714323462,416.463356158526 M 66.05,416.41224489796 M 66.4382285676538,416.463356158526 M 66.8,416.613206792283 M 67.1106601717798,416.85158472618 M 67.3490381056767,417.16224489796 M 67.4988887394336,417.524016330306 M 67.55,417.91224489796 M 67.4988887394336,418.300473465613 M 67.3490381056767,418.66224489796 M 67.1106601717799,418.972905069739 M 69.8509618943233,365.062244897959 M 70.0893398282201,364.75158472618 M 70.3999999999999,364.513206792283 M 70.7617714323462,364.363356158526 M 71.15,364.31224489796 M 71.5382285676537,364.363356158526 M 71.9,364.513206792283 M 72.2106601717799,364.75158472618 M 72.4490381056766,365.062244897959 M 72.5988887394336,365.424016330306 M 72.6499999999999,365.81224489796 M 72.5988887394336,366.200473465613 M 72.4490381056766,366.56224489796 M 72.2106601717799,366.87290506974 M 71.9,367.111283003636 M 71.5382285676537,367.261133637394 M 71.15,367.31224489796 M 70.7617714323462,367.261133637394 M 70.4,367.111283003636 M 70.0893398282201,366.87290506974 M 69.8509618943233,366.56224489796 M 69.7011112605663,366.200473465614 M 69.6499999999999,365.81224489796 M 69.7011112605663,365.424016330306 M 24.4283800268983,367.366001663521 M 24.3123283653003,367.739988018271 M 24.103436276961,368.071194716767 M 23.8159394124906,368.337050569851 M 23.4694302080912,368.519437940482 M 23.0875226934096,368.605927430762 M 22.6962432344391,368.590624924859 M 22.3222568796888,368.47457326326 M 21.991050181193,368.265681174921 M 21.7251943281093,367.978184310451 M 21.542806957478,367.631675106051 M 21.4563174671981,367.24976759137 M 21.4716199731016,366.858488132399 M 21.5876716346997,366.484501777648 M 21.7965637230389,366.153295079152 M 22.0840605875094,365.887439226069 M 22.4305697919086,365.705051855437 M 22.8124773065904,365.618562365158 M 23.2037567655609,365.633864871062 M 23.5777431203112,365.749916532659 M 23.908949818807,365.958808620999 M 24.1748056718906,366.246305485469 M 24.357193042522,366.592814689868 M 24.4436825328019,366.97472220455 M 36.721422879656,418.369593136427 M 36.6517300302546,417.984266406961 M 36.6841418032831,417.594031530677 M 36.8164493899725,417.225482369501 M 37.0396362469388,416.903734939711 M 37.3384925587133,416.650715796934 M 37.6926517615322,416.483667777616 M 38.0779784909989,416.413974928214 M 38.4682133672828,416.446386701243 M 38.836762528459,416.578694287933 M 39.1585099582493,416.801881144899 M 39.4115291010264,417.100737456673 M 39.5785771203441,417.454896659492 M 39.6482699697456,417.840223388959 M 39.6158581967171,418.230458265243 M 39.4835506100276,418.599007426419 M 39.2603637530613,418.920754856209 M 38.9615074412866,419.173773998986 M 38.6073482384678,419.340822018303 M 38.2220215090011,419.410514867706 M 37.8317866327171,419.378103094677 M 37.4632374715412,419.245795507987 M 37.1414900417509,419.022608651021 M 36.8884708989736,418.723752339246 M 64.9999999999999,345.61224489796 M 75.0,345.61224489796 M 75.0,348.61224489796 M 64.9999999999999,348.61224489796 M 34.9999999999999,456.61224489796 M 25.0,456.61224489796 M 25.0,453.61224489796 M 34.9999999999999,453.61224489796 M 25.0,345.61224489796 M 34.9999999999999,345.61224489796 M 34.9999999999999,348.61224489796 M 25.0,348.61224489796 M 64.9999999999999,453.61224489796 M 75.0,453.61224489796 M 75.0,456.61224489796 M 64.9999999999999,456.61224489796 "
  />
  <path id="face4-interior"
 style="fill:none;stroke:rgb(255,0,0);stroke-width:1;stroke-miterlimit:4;stroke-dasharray:none;stroke-linejoin:round;stroke-linecap:round"
        d="M 75.6,468.61224489796 M 10.0,468.61224489796 M 10.0,486.031486378827 M 36.9771329048245,486.031486378827 M 36.9771329048245,566.031486378826 M 10.0,566.031486378826 M 10.0,583.61224489796 M 75.6,583.61224489796 M 50.0,473.61224489796 M 50.0,470.61224489796 M 60.0,470.61224489796 M 60.0,473.61224489796 M 29.9999999999999,470.61224489796 M 29.9999999999999,473.61224489796 M 20.0,473.61224489796 M 20.0,470.61224489796 M 19.9999999999999,581.61224489796 M 19.9999999999999,578.612244897961 M 29.9999999999999,578.612244897961 M 29.9999999999999,581.61224489796 M 60.0,578.612244897961 M 60.0,581.61224489796 M 50.0,581.61224489796 M 50.0,578.612244897961 M 38.5511112605664,472.500473465614 M 38.5,472.11224489796 M 38.5511112605664,471.724016330306 M 38.7009618943234,471.36224489796 M 38.9393398282202,471.05158472618 M 39.2500000000001,470.813206792284 M 39.6117714323462,470.663356158526 M 40.0000000000001,470.61224489796 M 40.3882285676538,470.663356158527 M 40.7499999999999,470.813206792284 M 41.0606601717798,471.05158472618 M 41.2990381056766,471.36224489796 M 41.4488887394336,471.724016330306 M 41.5,472.11224489796 M 41.4488887394336,472.500473465614 M 41.2990381056766,472.86224489796 M 41.0606601717798,473.17290506974 M 40.7500000000001,473.411283003637 M 40.3882285676538,473.561133637394 M 40.0000000000001,473.61224489796 M 39.6117714323462,473.561133637394 M 39.2500000000001,473.411283003637 M 38.9393398282202,473.17290506974 M 38.7009618943234,472.86224489796 M 40.7500000000001,578.813206792284 M 41.0606601717798,579.05158472618 M 41.2990381056766,579.36224489796 M 41.4488887394336,579.724016330306 M 41.5,580.11224489796 M 41.4488887394336,580.500473465614 M 41.2990381056766,580.86224489796 M 41.0606601717798,581.17290506974 M 40.7500000000001,581.411283003637 M 40.3882285676538,581.561133637394 M 40.0000000000001,581.61224489796 M 39.6117714323462,581.561133637394 M 39.2500000000001,581.411283003637 M 38.9393398282202,581.17290506974 M 38.7009618943234,580.86224489796 M 38.5511112605664,580.500473465614 M 38.5,580.11224489796 M 38.5511112605664,579.724016330306 M 38.7009618943234,579.36224489796 M 38.9393398282202,579.05158472618 M 39.2500000000001,578.813206792284 M 39.6117714323462,578.663356158527 M 40.0000000000001,578.612244897961 M 40.3882285676538,578.663356158527 "
  />
  <path id="face5-interior"
 style="fill:none;stroke:rgb(255,0,0);stroke-width:1;stroke-miterlimit:4;stroke-dasharray:none;stroke-linejoin:round;stroke-linecap:round"
        d="M 47.4916407684016,619.655468253384 M 46.9849282331384,618.793353176026 M 45.9072843864414,619.426743845105 M 44.6405030482833,617.271456151712 M 45.7181468949802,616.638065482632 M 43.6912967539276,613.189605173203 M 32.0527432096012,620.030224399256 M 29.5191805332852,615.719649012468 M 20.8980297597101,620.7867743651 M 23.4315924360259,625.097349751887 M 13.0,631.228571428572 M 13.0,635.224489795919 M 10.0,635.224489795919 M 10.0,640.224489795919 M 13.0,640.224489795919 M 13.0,643.724489795919 M 17.5000000000001,643.724489795919 M 17.5000000000001,642.474489795919 M 20.0000000000001,642.474489795919 M 20.0000000000001,643.724489795919 M 20.5000000000001,643.724489795919 M 20.5000000000001,646.724489795919 M 20.0000000000001,646.724489795919 M 20.0000000000001,647.974489795919 M 17.5000000000001,647.974489795919 M 17.5000000000001,646.724489795919 M 13.0,646.724489795919 M 13.0,650.224489795919 M 10.0,650.224489795919 M 10.0,655.224489795919 M 13.0,655.224489795919 M 13.0,660.224489795919 M 20.0000000000001,660.224489795919 M 20.0000000000001,667.224489795919 M 30.0000000000001,667.224489795919 M 30.0000000000001,660.224489795919 M 43.5000000000001,660.224489795919 M 43.5000000000001,656.224489795919 M 42.2500000000001,656.224489795919 M 42.2500000000001,653.724489795919 M 43.5000000000001,653.724489795919 M 43.5000000000001,653.224489795919 M 46.5,653.224489795919 M 46.5,653.724489795919 M 47.7500000000001,653.724489795919 M 47.7500000000001,656.224489795919 M 46.5,656.224489795919 M 46.5,660.224489795919 M 59.9999999999999,660.224489795919 M 59.9999999999999,667.224489795919 M 70.0000000000001,667.224489795919 M 70.0000000000001,660.224489795919 M 77.0000000000001,660.224489795919 M 77.0000000000001,650.224489795919 M 80.0000000000001,650.224489795919 M 80.0000000000001,640.224489795919 M 77.0000000000001,640.224489795919 M 77.0000000000001,631.724489795919 M 72.5,631.724489795919 M 72.5,632.974489795919 M 70.0000000000001,632.974489795919 M 70.0000000000001,631.724489795919 M 69.5,631.724489795919 M 69.5,628.724489795919 M 70.0000000000001,628.724489795919 M 70.0000000000001,627.474489795919 M 72.5,627.474489795919 M 72.5,628.724489795919 M 77.0000000000001,628.724489795919 M 77.0000000000001,620.224489795919 M 80.0000000000001,620.224489795919 M 80.0000000000001,610.224489795919 M 77.0000000000001,610.224489795919 M 77.0000000000001,600.224489795919 M 77.0000000000001,593.61224489796 M 66.552876933938,599.752594781687 M 64.019314257622,595.442019394899 M 55.3981634840469,600.509144747531 M 57.9317261603628,604.819720134318 M 46.2776419860001,611.669467567413 M 48.3044921270529,615.117927876843 M 49.3821359737498,614.484537207764 M 50.6489173119077,616.639824901158 M 49.5712734652108,617.273215570237 M 50.077986000474,618.135330647595 "
  />
  <path id="face0-interior"
 style="fill:none;stroke:rgb(0,255,0);stroke-width:1;stroke-miterlimit:4;stroke-dasharray:none;stroke-linejoin:round;stroke-linecap:round"
        d="M 47.4916407684016,36.0432233554236 M 46.9849282331384,35.181108278066 M 45.9072843864414,35.8144989471451 M 44.6405030482833,33.6592112537512 M 45.7181468949802,33.0258205846722 M 43.6912967539276,29.5773602752424 M 32.0527432096012,36.4179795012953 M 29.5191805332852,32.1074041145076 M 20.8980297597101,37.1745294671393 M 23.4315924360259,41.485104853927 M 13.0,47.6163265306116 M 13.0,51.6122448979587 M 10.0,51.6122448979588 M 10.0,56.6122448979587 M 13.0,56.6122448979587 M 13.0,60.1122448979586 M 17.5000000000001,60.1122448979586 M 17.5000000000001,58.8622448979589 M 20.0000000000001,58.8622448979589 M 20.0000000000001,60.1122448979586 M 20.5000000000001,60.1122448979586 M 20.5000000000001,63.1122448979587 M 20.0000000000001,63.1122448979587 M 20.0000000000001,64.3622448979587 M 17.5000000000001,64.3622448979587 M 17.5000000000001,63.1122448979587 M 13.0,63.1122448979587 M 13.0,66.6122448979586 M 10.0,66.6122448979586 M 10.0,71.6122448979589 M 13.0,71.6122448979589 M 13.0,76.6122448979588 M 20.0000000000001,76.6122448979588 M 20.0000000000001,83.6122448979587 M 30.0000000000001,83.6122448979587 M 30.0000000000001,76.6122448979588 M 43.5000000000001,76.6122448979588 M 43.5000000000001,72.6122448979587 M 42.2500000000001,72.6122448979587 M 42.2500000000001,70.1122448979589 M 43.5000000000001,70.1122448979589 M 43.5000000000001,69.6122448979586 M 46.5,69.6122448979586 M 46.5,70.1122448979589 M 47.7500000000001,70.1122448979589 M 47.7500000000001,72.6122448979587 M 46.5,72.6122448979587 M 46.5,76.6122448979588 M 60.0,76.6122448979588 M 60.0,83.6122448979587 M 70.0000000000001,83.6122448979587 M 70.0000000000001,76.6122448979588 M 77.0000000000001,76.6122448979588 M 77.0000000000001,66.6122448979586 M 80.0000000000001,66.6122448979586 M 80.0000000000001,56.6122448979587 M 77.0000000000001,56.6122448979587 M 77.0000000000001,48.1122448979588 M 72.5,48.1122448979588 M 72.5,49.3622448979589 M 70.0000000000001,49.3622448979589 M 70.0000000000001,48.1122448979588 M 69.5,48.1122448979588 M 69.5,45.1122448979584 M 70.0000000000001,45.1122448979584 M 70.0000000000001,43.8622448979587 M 72.5,43.8622448979587 M 72.5,45.1122448979584 M 77.0000000000001,45.1122448979584 M 77.0000000000001,36.6122448979585 M 80.0000000000001,36.6122448979585 M 80.0000000000001,26.6122448979587 M 77.0000000000001,26.6122448979587 M 77.0000000000001,16.6122448979588 M 77.0000000000001,10.0 M 66.552876933938,16.1403498837263 M 64.019314257622,11.8297744969386 M 55.3981634840469,16.8968998495706 M 57.9317261603628,21.207475236358 M 46.2776419860001,28.0572226694526 M 48.3044921270529,31.5056829788828 M 49.3821359737498,30.8722923098038 M 50.6489173119077,33.0275800031976 M 49.5712734652108,33.6609706722767 M 50.077986000474,34.5230857496342 M 53.8500000000001,73.6122448979588 M 53.8500000000001,61.6122448979588 M 69.8500000000001,61.6122448979588 M 69.8500000000001,73.6122448979588 M 23.9999999999999,61.6122448979588 M 39.9999999999999,61.6122448979588 M 39.9999999999999,73.6122448979588 M 23.9999999999999,73.6122448979588 "
  />
  <path id="face1-interior"
 style="fill:none;stroke:rgb(0,255,0);stroke-width:1;stroke-miterlimit:4;stroke-dasharray:none;stroke-linejoin:round;stroke-linecap:round"
        d="M 10.0,93.6122448979587 M 10.0,208.612244897959 M 102.8,208.612244897959 M 102.8,93.6122448979587 M 75.2355536126369,121.06527351846 M 75.9000000000001,126.112244897959 M 75.2355536126369,131.159216277458 M 73.2874953737967,135.862244897958 M 70.1885822331378,139.900827131097 M 66.15,142.999740271755 M 61.4469713794991,144.947798510596 M 56.4,145.612244897959 M 51.3530286205009,144.947798510596 M 46.65,142.999740271755 M 42.6114177668624,139.900827131097 M 39.5125046262035,135.862244897958 M 37.5644463873633,131.159216277458 M 36.8999999999999,126.112244897959 M 37.5644463873633,121.06527351846 M 39.5125046262035,116.362244897959 M 42.6114177668624,112.323662664821 M 46.65,109.224749524162 M 51.3530286205009,107.276691285322 M 56.4,106.612244897959 M 61.4469713794991,107.276691285322 M 66.15,109.224749524162 M 70.1885822331376,112.323662664821 M 73.2874953737965,116.362244897959 M 38.4342850532442,142.793372360953 M 38.566758364488,142.424882736258 M 38.7900898899061,142.103235706964 M 39.0890599551138,141.85035098657 M 39.4432942442388,141.683462250859 M 39.8286522758769,141.613942691372 M 40.2188725370062,141.646529951203 M 40.5873621617005,141.779003262447 M 40.9090091909945,142.002334787865 M 41.1618939113889,142.301304853072 M 41.3287826471002,142.655539142198 M 41.3983022065867,143.040897173836 M 41.3657149467557,143.431117434965 M 41.2332416355119,143.799607059659 M 41.009910110094,144.121254088953 M 40.7109400448861,144.374138809348 M 40.3567057557613,144.541027545059 M 39.9713477241232,144.610547104545 M 39.5811274629937,144.577959844714 M 39.2126378382996,144.44548653347 M 38.8909908090056,144.222155008053 M 38.6381060886113,143.923184942845 M 38.4712173528999,143.56895065372 M 38.4016977934132,143.183592622082 M 39.2778454696436,110.47713454198 M 38.94578543685,110.269601613701 M 38.6787535496209,109.983196737865 M 38.4949475897801,109.637437933457 M 38.4068936297368,109.255888091601 M 38.4205924013522,108.864549203481 M 38.5351103559785,108.490090367602 M 38.7426432842583,108.158030334809 M 39.0290481600935,107.89099844758 M 39.3748069645022,107.707192487739 M 39.7563568063576,107.619138527696 M 40.1476956944782,107.632837299311 M 40.5221545303565,107.747355253938 M 40.8542145631501,107.954888182217 M 41.121246450379,108.241293058052 M 41.3050524102198,108.587051862461 M 41.3931063702631,108.968601704316 M 41.3794075986479,109.359940592437 M 41.2648896440214,109.734399428315 M 41.0573567157417,110.066459461109 M 40.7709518399067,110.333491348338 M 40.4251930354977,110.517297308179 M 40.0436431936424,110.605351268222 M 39.6523043055218,110.591652496607 M 38.5627138959068,193.891704886332 M 38.432423629543,193.522437736168 M 38.402146267541,193.132031456698 M 38.473945162086,192.747091590691 M 38.6429273371676,192.393851153873 M 38.8975769368105,192.096382898253 M 39.2205400116275,191.874958793865 M 39.589807161791,191.744668527501 M 39.9802134412607,191.7143911655 M 40.3651533072677,191.786190060044 M 40.7183937440862,191.955172235126 M 41.0158619997052,192.209821834769 M 41.2372861040931,192.532784909586 M 41.3675763704571,192.90205205975 M 41.3978537324589,193.292458339219 M 41.3260548379141,193.677398205226 M 41.1570726628323,194.030638642045 M 40.9024230631894,194.328106897664 M 40.5794599883727,194.549531002052 M 40.2101928382089,194.679821268415 M 39.8197865587392,194.710098630418 M 39.4348466927324,194.638299735872 M 39.0816062559137,194.469317560791 M 38.7841380002949,194.214667961148 M 39.9,160.712244897959 M 39.5117714323463,160.661133637392 M 39.15,160.511283003635 M 38.8393398282201,160.272905069739 M 38.6009618943234,159.962244897959 M 38.4511112605664,159.600473465613 M 38.3999999999999,159.212244897959 M 38.4511112605664,158.824016330305 M 38.6009618943234,158.462244897959 M 38.8393398282201,158.151584726179 M 39.15,157.913206792282 M 39.5117714323463,157.763356158525 M 39.9,157.712244897959 M 40.2882285676538,157.763356158525 M 40.65,157.913206792282 M 40.9606601717798,158.151584726179 M 41.1990381056767,158.462244897959 M 41.3488887394337,158.824016330305 M 41.4,159.212244897959 M 41.3488887394337,159.600473465613 M 41.1990381056767,159.962244897959 M 40.9606601717798,160.272905069739 M 40.65,160.511283003635 M 40.2882285676538,160.661133637392 M 59.6233192270695,195.443995030497 M 54.5359440828465,195.622945440127 M 49.5756012688797,194.479088685506 M 45.0803299505864,192.090376714152 M 41.3564754395214,188.619596299377 M 38.6578122666534,184.303275390713 M 37.1682498674613,179.435564125028 M 36.9892994578318,174.348188980806 M 38.1331562124519,169.387846166838 M 40.5218681838067,164.892574848545 M 43.9926485985816,161.16872033748 M 48.3089695072455,158.470057164613 M 53.1766807729305,156.98049476542 M 58.2640559171535,156.80154435579 M 63.2243987311203,157.945401110411 M 67.7196700494137,160.334113081766 M 71.4435245604786,163.80489349654 M 74.1421877333466,168.121214405204 M 75.6317501325387,172.988925670889 M 75.8107005421682,178.076300815113 M 74.6668437875481,183.036643629079 M 72.2781318161933,187.531914947373 M 68.8073514014184,191.255769458437 M 64.4910304927545,193.954432631306 M 71.4,98.6122448979586 M 71.4,95.6122448979588 M 81.4,95.6122448979584 M 81.4,98.6122448979587 M 31.4,95.6122448979585 M 41.4,95.6122448979586 M 41.4,98.6122448979586 M 31.4,98.6122448979586 M 71.4,206.612244897959 M 71.4,203.612244897959 M 81.4,203.612244897959 M 81.4,206.612244897959 M 31.4,206.612244897959 M 31.4,203.612244897959 M 41.4,203.612244897959 M 41.4,206.612244897959 M 56.0117714323462,98.4611336373923 M 55.65,98.3112830036354 M 55.3393398282202,98.0729050697385 M 55.1009618943233,97.7622448979588 M 54.9511112605664,97.4004734656126 M 54.9,97.0122448979587 M 54.9511112605664,96.6240163303049 M 55.1009618943233,96.2622448979588 M 55.3393398282202,95.9515847261787 M 55.65,95.7132067922822 M 56.0117714323462,95.5633561585249 M 56.4,95.5122448979587 M 56.7882285676538,95.5633561585249 M 57.15,95.7132067922823 M 57.4606601717798,95.9515847261789 M 57.6990381056767,96.2622448979588 M 57.8488887394336,96.6240163303047 M 57.9,97.0122448979586 M 57.8488887394336,97.4004734656126 M 57.6990381056767,97.7622448979589 M 57.4606601717798,98.0729050697384 M 57.15,98.3112830036354 M 56.7882285676538,98.4611336373923 M 56.4,98.5122448979586 M 57.15,203.813206792282 M 57.4606601717798,204.051584726179 M 57.6990381056767,204.362244897959 M 57.8488887394336,204.724016330305 M 57.9,205.112244897959 M 57.8488887394336,205.500473465612 M 57.6990381056767,205.862244897958 M 57.4606601717798,206.172905069739 M 57.15,206.411283003635 M 56.7882285676538,206.561133637392 M 56.4,206.612244897959 M 56.0117714323462,206.561133637392 M 55.65,206.411283003635 M 55.3393398282202,206.172905069739 M 55.1009618943233,205.862244897958 M 54.9511112605664,205.500473465612 M 54.9,205.112244897959 M 54.9511112605664,204.724016330305 M 55.1009618943233,204.362244897959 M 55.3393398282202,204.051584726179 M 55.65,203.813206792282 M 56.0117714323462,203.663356158526 M 56.4,203.612244897959 M 56.7882285676538,203.663356158526 "
  />
  <path id="face2-interior"
 style="fill:none;stroke:rgb(0,255,0);stroke-width:1;stroke-miterlimit:4;stroke-dasharray:none;stroke-linejoin:round;stroke-linecap:round"
        d="M 10.0,251.112244897959 M 17.0,251.112244897959 M 17.0,301.112244897959 M 10.0,301.112244897959 M 10.0,311.112244897959 M 17.0,311.112244897959 M 17.0,333.61224489796 M 44.0000000000001,333.61224489796 M 44.0000000000001,218.612244897959 M 17.0,218.612244897959 M 17.0,241.112244897959 M 10.0,241.112244897959 M 26.9999999999999,220.612244897959 M 26.9999999999999,223.612244897959 M 21.9999999999999,223.612244897959 M 21.9999999999999,220.612244897959 M 21.9999999999999,331.612244897959 M 21.9999999999999,328.612244897959 M 27.0000000000001,328.612244897959 M 27.0000000000001,331.612244897959 M 41.9999999999999,223.612244897959 M 37.0,223.612244897959 M 37.0,220.612244897959 M 41.9999999999999,220.612244897959 M 41.9999999999999,331.612244897959 M 37.0,331.612244897959 M 37.0,328.612244897959 M 41.9999999999999,328.612244897959 M 30.5511112605664,222.500473465613 M 30.5,222.112244897959 M 30.5511112605664,221.724016330306 M 30.7009618943233,221.362244897959 M 30.9393398282202,221.051584726179 M 31.2499999999998,220.813206792283 M 31.6117714323461,220.663356158525 M 32.0000000000001,220.612244897959 M 32.3882285676538,220.663356158525 M 32.7499999999999,220.813206792283 M 33.0606601717798,221.051584726179 M 33.2990381056766,221.362244897959 M 33.4488887394335,221.724016330306 M 33.5000000000001,222.112244897959 M 33.4488887394335,222.500473465613 M 33.2990381056766,222.862244897959 M 33.0606601717798,223.172905069739 M 32.7499999999999,223.411283003636 M 32.3882285676538,223.561133637393 M 32.0000000000001,223.612244897959 M 31.6117714323461,223.561133637393 M 31.2499999999998,223.411283003636 M 30.9393398282202,223.172905069739 M 30.7009618943233,222.862244897959 M 30.5140458402832,330.317038050238 M 30.5116741323315,329.925466656109 M 30.6107293726865,329.546623890495 M 30.8044611104148,329.206327261808 M 31.079666847747,328.927767422925 M 31.4175917684826,328.729927766523 M 31.7952068477211,328.626290738242 M 32.1867782418507,328.623919030291 M 32.5656210074638,328.722974270646 M 32.9059176361511,328.916706008375 M 33.1844774750346,329.191911745706 M 33.3823171314357,329.529836666442 M 33.4859541597167,329.90745174568 M 33.4883258676686,330.29902313981 M 33.3892706273134,330.677865905423 M 33.1955388895851,331.018162534111 M 32.9203331522531,331.296722372994 M 32.5824082315174,331.494562029395 M 32.204793152279,331.598199057677 M 31.8132217581492,331.600570765628 M 31.434378992536,331.501515525273 M 31.0940823638489,331.307783787544 M 30.8155225249655,331.032578050213 M 30.6176828685643,330.694653129476 "
  />
  <path id="face3-interior"
 style="fill:none;stroke:rgb(0,255,0);stroke-width:1;stroke-miterlimit:4;stroke-dasharray:none;stroke-linejoin:round;stroke-linecap:round"
        d="M 10.0,458.61224489796 M 90.0000000000001,458.61224489796 M 90.0000000000001,343.61224489796 M 10.0,343.61224489796 M 35.5617714323462,382.863356158526 M 35.9499999999999,382.81224489796 M 36.3382285676539,382.863356158526 M 36.7,383.013206792283 M 37.01066017178,383.25158472618 M 37.2490381056767,383.56224489796 M 37.3988887394336,383.924016330306 M 37.45,384.31224489796 M 37.3988887394336,384.700473465614 M 37.2490381056767,385.06224489796 M 37.01066017178,385.372905069739 M 36.6999999999999,385.611283003636 M 36.3382285676538,385.761133637393 M 35.95,385.81224489796 M 35.5617714323462,385.761133637393 M 35.1999999999999,385.611283003636 M 34.8893398282201,385.372905069739 M 34.6509618943234,385.06224489796 M 34.5011112605664,384.700473465614 M 34.4500000000001,384.31224489796 M 34.5011112605664,383.924016330306 M 34.6509618943234,383.56224489796 M 34.8893398282202,383.25158472618 M 35.1999999999999,383.013206792283 M 64.6615074412866,385.573773998986 M 64.3073482384679,385.740822018304 M 63.9220215090012,385.810514867705 M 63.5317866327173,385.778103094677 M 63.1632374715412,385.645795507987 M 62.8414900417508,385.422608651021 M 62.5884708989737,385.123752339246 M 62.4214228796559,384.769593136428 M 62.3517300302545,384.384266406961 M 62.3841418032831,383.994031530677 M 62.5164493899725,383.625482369501 M 62.7396362469388,383.30373493971 M 63.0384925587135,383.050715796933 M 63.3926517615323,382.883667777616 M 63.7779784909989,382.813974928214 M 64.1682133672828,382.846386701243 M 64.5367625284589,382.978694287932 M 64.8585099582492,383.201881144899 M 65.1115291010265,383.500737456673 M 65.2785771203441,383.854896659492 M 65.3482699697456,384.240223388959 M 65.315858196717,384.630458265243 M 65.1835506100276,384.999007426419 M 64.9603637530613,385.320754856209 M 79.1875226934097,436.605927430761 M 78.7962432344391,436.590624924858 M 78.4222568796886,436.47457326326 M 78.0910501811929,436.265681174921 M 77.8251943281093,435.978184310451 M 77.6428069574781,435.631675106051 M 77.5563174671983,435.24976759137 M 77.5716199731016,434.858488132399 M 77.6876716346997,434.484501777648 M 77.896563723039,434.153295079152 M 78.1840605875095,433.887439226069 M 78.5305697919086,433.705051855437 M 78.9124773065903,433.618562365158 M 79.3037567655608,433.633864871061 M 79.6777431203113,433.749916532659 M 80.0089498188071,433.958808620998 M 80.2748056718906,434.246305485469 M 80.4571930425219,434.592814689868 M 80.5436825328019,434.97472220455 M 80.5283800268983,435.366001663521 M 80.4123283653002,435.739988018271 M 80.2034362769611,436.071194716767 M 79.9159394124905,436.337050569851 M 79.5694302080913,436.519437940482 M 32.2988887394337,436.024016330306 M 32.35,436.41224489796 M 32.2988887394337,436.800473465614 M 32.1490381056766,437.16224489796 M 31.9106601717798,437.472905069739 M 31.6,437.711283003636 M 31.2382285676537,437.861133637393 M 30.85,437.91224489796 M 30.4617714323463,437.861133637393 M 30.1,437.711283003636 M 29.7893398282202,437.472905069739 M 29.5509618943233,437.16224489796 M 29.4011112605663,436.800473465614 M 29.35,436.41224489796 M 29.4011112605663,436.024016330306 M 29.5509618943233,435.66224489796 M 29.7893398282202,435.35158472618 M 30.1,435.113206792283 M 30.4617714323463,434.963356158526 M 30.85,434.91224489796 M 31.2382285676537,434.963356158526 M 31.6,435.113206792283 M 31.9106601717798,435.35158472618 M 32.1490381056766,435.66224489796 M 49.6117714323462,456.561133637393 M 49.2499999999999,456.411283003636 M 48.9393398282201,456.17290506974 M 48.7009618943233,455.862244897959 M 48.5511112605664,455.500473465614 M 48.5000000000001,455.11224489796 M 48.5511112605664,454.724016330306 M 48.7009618943233,454.36224489796 M 48.9393398282201,454.05158472618 M 49.2499999999999,453.813206792283 M 49.6117714323462,453.663356158527 M 49.9999999999999,453.61224489796 M 50.3882285676538,453.663356158527 M 50.7499999999999,453.813206792283 M 51.0606601717799,454.05158472618 M 51.2990381056767,454.36224489796 M 51.4488887394336,454.724016330306 M 51.5,455.11224489796 M 51.4488887394336,455.500473465613 M 51.2990381056767,455.862244897959 M 51.0606601717799,456.17290506974 M 50.7499999999999,456.411283003636 M 50.3882285676538,456.561133637393 M 49.9999999999999,456.61224489796 M 51.246244164294,346.177454215834 M 51.4198391513617,346.528450743116 M 51.4966744466594,346.912417042543 M 51.4715138517886,347.303186445344 M 51.3460720197102,347.674128662494 M 51.1288976039776,347.999964594905 M 50.8347906821254,348.258489062254 M 50.4837941548432,348.432084049322 M 50.0998278554162,348.508919344619 M 49.7090584526159,348.483758749748 M 49.3381162354661,348.35831691767 M 49.0122803030547,348.141142501937 M 48.7537558357061,347.847035580085 M 48.5801608486384,347.496039052803 M 48.5033255533407,347.112072753376 M 48.5284861482114,346.721303350576 M 48.6539279802899,346.350361133426 M 48.8711023960224,346.024525201014 M 49.1652093178747,345.766000733666 M 49.5162058451566,345.592405746598 M 49.9001721445837,345.5155704513 M 50.2909415473842,345.540731046171 M 50.6618837645339,345.66617287825 M 50.9877196969453,345.883347293982 M 18.0,376.11224489796 M 15.0,376.11224489796 M 15.0,366.11224489796 M 18.0,366.11224489796 M 15.0,426.11224489796 M 18.0,426.11224489796 M 18.0,436.11224489796 M 15.0,436.11224489796 M 66.8,419.211283003637 M 66.4382285676538,419.361133637393 M 66.05,419.41224489796 M 65.6617714323462,419.361133637393 M 65.2999999999999,419.211283003637 M 64.9893398282202,418.972905069739 M 64.7509618943234,418.66224489796 M 64.6011112605664,418.300473465613 M 64.5500000000001,417.91224489796 M 64.6011112605664,417.524016330306 M 64.7509618943234,417.16224489796 M 64.9893398282202,416.85158472618 M 65.2999999999999,416.613206792283 M 65.6617714323462,416.463356158526 M 66.05,416.41224489796 M 66.4382285676538,416.463356158526 M 66.8,416.613206792283 M 67.1106601717798,416.85158472618 M 67.3490381056767,417.16224489796 M 67.4988887394336,417.524016330306 M 67.55,417.91224489796 M 67.4988887394336,418.300473465613 M 67.3490381056767,418.66224489796 M 67.1106601717799,418.972905069739 M 69.8509618943233,365.062244897959 M 70.0893398282201,364.75158472618 M 70.3999999999999,364.513206792283 M 70.7617714323462,364.363356158526 M 71.15,364.31224489796 M 71.5382285676537,364.363356158526 M 71.9,364.513206792283 M 72.2106601717799,364.75158472618 M 72.4490381056766,365.062244897959 M 72.5988887394336,365.424016330306 M 72.6499999999999,365.81224489796 M 72.5988887394336,366.200473465613 M 72.4490381056766,366.56224489796 M 72.2106601717799,366.87290506974 M 71.9,367.111283003636 M 71.5382285676537,367.261133637394 M 71.15,367.31224489796 M 70.7617714323462,367.261133637394 M 70.4,367.111283003636 M 70.0893398282201,366.87290506974 M 69.8509618943233,366.56224489796 M 69.7011112605663,366.200473465614 M 69.6499999999999,365.81224489796 M 69.7011112605663,365.424016330306 M 24.4283800268983,367.366001663521 M 24.3123283653003,367.739988018271 M 24.103436276961,368.071194716767 M 23.8159394124906,368.337050569851 M 23.4694302080912,368.519437940482 M 23.0875226934096,368.605927430762 M 22.6962432344391,368.590624924859 M 22.3222568796888,368.47457326326 M 21.991050181193,368.265681174921 M 21.7251943281093,367.978184310451 M 21.542806957478,367.631675106051 M 21.4563174671981,367.24976759137 M 21.4716199731016,366.858488132399 M 21.5876716346997,366.484501777648 M 21.7965637230389,366.153295079152 M 22.0840605875094,365.887439226069 M 22.4305697919086,365.705051855437 M 22.8124773065904,365.618562365158 M 23.2037567655609,365.633864871062 M 23.5777431203112,365.749916532659 M 23.908949818807,365.958808620999 M 24.1748056718906,366.246305485469 M 24.357193042522,366.592814689868 M 24.4436825328019,366.97472220455 M 36.721422879656,418.369593136427 M 36.6517300302546,417.984266406961 M 36.6841418032831,417.594031530677 M 36.8164493899725,417.225482369501 M 37.0396362469388,416.903734939711 M 37.3384925587133,416.650715796934 M 37.6926517615322,416.483667777616 M 38.0779784909989,416.413974928214 M 38.4682133672828,416.446386701243 M 38.836762528459,416.578694287933 M 39.1585099582493,416.801881144899 M 39.4115291010264,417.100737456673 M 39.5785771203441,417.454896659492 M 39.6482699697456,417.840223388959 M 39.6158581967171,418.230458265243 M 39.4835506100276,418.599007426419 M 39.2603637530613,418.920754856209 M 38.9615074412866,419.173773998986 M 38.6073482384678,419.340822018303 M 38.2220215090011,419.410514867706 M 37.8317866327171,419.378103094677 M 37.4632374715412,419.245795507987 M 37.1414900417509,419.022608651021 M 36.8884708989736,418.723752339246 M 64.9999999999999,345.61224489796 M 75.0,345.61224489796 M 75.0,348.61224489796 M 64.9999999999999,348.61224489796 M 34.9999999999999,456.61224489796 M 25.0,456.61224489796 M 25.0,453.61224489796 M 34.9999999999999,453.61224489796 M 25.0,345.61224489796 M 34.9999999999999,345.61224489796 M 34.9999999999999,348.61224489796 M 25.0,348.61224489796 M 64.9999999999999,453.61224489796 M 75.0,453.61224489796 M 75.0,456.61224489796 M 64.9999999999999,456.61224489796 "
  />
  <path id="face4-interior"
 style="fill:none;stroke:rgb(0,255,0);stroke-width:1;stroke-miterlimit:4;stroke-dasharray:none;stroke-linejoin:round;stroke-linecap:round"
        d="M 75.6,468.61224489796 M 10.0,468.61224489796 M 10.0,486.031486378827 M 36.9771329048245,486.031486378827 M 36.9771329048245,566.031486378826 M 10.0,566.031486378826 M 10.0,583.61224489796 M 75.6,583.61224489796 M 50.0,473.61224489796 M 50.0,470.61224489796 M 60.0,470.61224489796 M 60.0,473.61224489796 M 29.9999999999999,470.61224489796 M 29.9999999999999,473.61224489796 M 20.0,473.61224489796 M 20.0,470.61224489796 M 19.9999999999999,581.61224489796 M 19.9999999999999,578.612244897961 M 29.9999999999999,578.612244897961 M 29.9999999999999,581.61224489796 M 60.0,578.612244897961 M 60.0,581.61224489796 M 50.0,581.61224489796 M 50.0,578.612244897961 M 38.5511112605664,472.500473465614 M 38.5,472.11224489796 M 38.5511112605664,471.724016330306 M 38.7009618943234,471.36224489796 M 38.9393398282202,471.05158472618 M 39.2500000000001,470.813206792284 M 39.6117714323462,470.663356158526 M 40.0000000000001,470.61224489796 M 40.3882285676538,470.663356158527 M 40.7499999999999,470.813206792284 M 41.0606601717798,471.05158472618 M 41.2990381056766,471.36224489796 M 41.4488887394336,471.724016330306 M 41.5,472.11224489796 M 41.4488887394336,472.500473465614 M 41.2990381056766,472.86224489796 M 41.0606601717798,473.17290506974 M 40.7500000000001,473.411283003637 M 40.3882285676538,473.561133637394 M 40.0000000000001,473.61224489796 M 39.6117714323462,473.561133637394 M 39.2500000000001,473.411283003637 M 38.9393398282202,473.17290506974 M 38.7009618943234,472.86224489796 M 40.7500000000001,578.813206792284 M 41.0606601717798,579.05158472618 M 41.2990381056766,579.36224489796 M 41.4488887394336,579.724016330306 M 41.5,580.11224489796 M 41.4488887394336,580.500473465614 M 41.2990381056766,580.86224489796 M 41.0606601717798,581.17290506974 M 40.7500000000001,581.411283003637 M 40.3882285676538,581.561133637394 M 40.0000000000001,581.61224489796 M 39.6117714323462,581.561133637394 M 39.2500000000001,581.411283003637 M 38.9393398282202,581.17290506974 M 38.7009618943234,580.86224489796 M 38.5511112605664,580.500473465614 M 38.5,580.11224489796 M 38.5511112605664,579.724016330306 M 38.7009618943234,579.36224489796 M 38.9393398282202,579.05158472618 M 39.2500000000001,578.813206792284 M 39.6117714323462,578.663356158527 M 40.0000000000001,578.612244897961 M 40.3882285676538,578.663356158527 "
  />
  <path id="face5-interior"
 style="fill:none;stroke:rgb(0,255,0);stroke-width:1;stroke-miterlimit:4;stroke-dasharray:none;stroke-linejoin:round;stroke-linecap:round"
        d="M 47.4916407684016,619.655468253384 M 46.9849282331384,618.793353176026 M 45.9072843864414,619.426743845105 M 44.6405030482833,617.271456151712 M 45.7181468949802,616.638065482632 M 43.6912967539276,613.189605173203 M 32.0527432096012,620.030224399256 M 29.5191805332852,615.719649012468 M 20.8980297597101,620.7867743651 M 23.4315924360259,625.097349751887 M 13.0,631.228571428572 M 13.0,635.224489795919 M 10.0,635.224489795919 M 10.0,640.224489795919 M 13.0,640.224489795919 M 13.0,643.724489795919 M 17.5000000000001,643.724489795919 M 17.5000000000001,642.474489795919 M 20.0000000000001,642.474489795919 M 20.0000000000001,643.724489795919 M 20.5000000000001,643.724489795919 M 20.5000000000001,646.724489795919 M 20.0000000000001,646.724489795919 M 20.0000000000001,647.974489795919 M 17.5000000000001,647.974489795919 M 17.5000000000001,646.724489795919 M 13.0,646.724489795919 M 13.0,650.224489795919 M 10.0,650.224489795919 M 10.0,655.224489795919 M 13.0,655.224489795919 M 13.0,660.224489795919 M 20.0000000000001,660.224489795919 M 20.0000000000001,667.224489795919 M 30.0000000000001,667.224489795919 M 30.0000000000001,660.224489795919 M 43.5000000000001,660.224489795919 M 43.5000000000001,656.224489795919 M 42.2500000000001,656.224489795919 M 42.2500000000001,653.724489795919 M 43.5000000000001,653.724489795919 M 43.5000000000001,653.224489795919 M 46.5,653.224489795919 M 46.5,653.724489795919 M 47.7500000000001,653.724489795919 M 47.7500000000001,656.224489795919 M 46.5,656.224489795919 M 46.5,660.224489795919 M 59.9999999999999,660.224489795919 M 59.9999999999999,667.224489795919 M 70.0000000000001,667.224489795919 M 70.0000000000001,660.224489795919 M 77.0000000000001,660.224489795919 M 77.0000000000001,650.224489795919 M 80.0000000000001,650.224489795919 M 80.0000000000001,640.224489795919 M 77.0000000000001,640.224489795919 M 77.0000000000001,631.724489795919 M 72.5,631.724489795919 M 72.5,632.974489795919 M 70.0000000000001,632.974489795919 M 70.0000000000001,631.724489795919 M 69.5,631.724489795919 M 69.5,628.724489795919 M 70.0000000000001,628.724489795919 M 70.0000000000001,627.474489795919 M 72.5,627.474489795919 M 72.5,628.724489795919 M 77.0000000000001,628.724489795919 M 77.0000000000001,620.224489795919 M 80.0000000000001,620.224489795919 M 80.0000000000001,610.224489795919 M 77.0000000000001,610.224489795919 M 77.0000000000001,600.224489795919 M 77.0000000000001,593.61224489796 M 66.552876933938,599.752594781687 M 64.019314257622,595.442019394899 M 55.3981634840469,600.509144747531 M 57.9317261603628,604.819720134318 M 46.2776419860001,611.669467567413 M 48.3044921270529,615.117927876843 M 49.3821359737498,614.484537207764 M 50.6489173119077,616.639824901158 M 49.5712734652108,617.273215570237 M 50.077986000474,618.135330647595 "
  />
</svg>
